<svg version="1.1" id="Layer_1" xmlns="http://www.w3.org/2000/svg" xmlns:xlink="http://www.w3.org/1999/xlink" x="0px" y="0px"
	 width="100%" viewBox="0 0 596 596" enable-background="new 0 0 596 596" xml:space="preserve">
<path fill="#CCCCCC" opacity="1.000000" stroke="none" 
	d="
M268.000000,1.000000 
	C288.687561,1.000000 309.375122,1.000000 330.230164,1.372601 
	C334.163116,2.494875 337.897339,3.530571 341.699371,3.945397 
	C359.479095,5.885304 376.612579,10.522621 393.590759,15.916812 
	C414.615051,22.596510 434.527740,31.790821 453.354706,43.167233 
	C473.239166,55.182625 491.636353,69.243134 508.176544,85.654388 
	C525.078491,102.424568 539.976379,120.724541 552.626831,140.966415 
	C563.979004,159.130737 573.387146,178.183548 580.572510,198.279541 
	C587.607605,217.955215 593.033325,238.099121 595.080566,259.015686 
	C595.150757,259.732849 596.335022,260.341003 597.000000,261.000000 
	C597.000000,286.354218 597.000000,311.708466 596.635864,337.230927 
	C595.849670,338.235046 595.141174,339.040314 595.047974,339.911377 
	C593.379333,355.511322 589.907776,370.714691 585.090881,385.622955 
	C582.145996,394.737457 579.123047,403.826782 575.768372,412.913605 
	C569.258179,409.563080 563.114685,406.226349 557.115662,402.549438 
	C560.507751,392.623596 563.961731,383.101929 566.959351,373.438690 
	C572.919434,354.225616 575.882935,334.362610 576.731079,314.404358 
	C577.402039,298.616089 575.936218,282.708710 574.932007,266.885162 
	C573.817444,249.322159 569.274475,232.387543 564.206665,215.622360 
	C558.193970,195.730942 549.420837,177.020889 538.973816,159.113831 
	C527.924438,140.174164 515.109375,122.471191 499.432587,107.083267 
	C490.159698,97.981224 480.433350,89.284584 470.403198,81.021942 
	C447.328827,62.013645 421.274750,48.198940 393.243622,37.966530 
	C369.167633,29.177885 344.276184,23.644953 318.802429,22.262920 
	C296.444092,21.049908 274.020142,21.658710 251.739441,25.815931 
	C223.238647,31.133734 196.285217,40.280781 170.570435,53.666180 
	C149.211380,64.784271 129.834976,78.595779 112.023193,94.603363 
	C97.410896,107.735550 84.504532,122.562157 73.187584,138.604736 
	C54.123188,165.629837 40.090767,195.151398 31.457594,227.123093 
	C25.433073,249.434052 22.119459,272.175629 22.056959,295.311310 
	C22.034657,303.567291 22.161194,311.883575 23.110676,320.069031 
	C24.797600,334.611847 26.122198,349.320831 29.461330,363.522278 
	C36.639519,394.051239 49.000805,422.542419 65.934525,449.064850 
	C76.726463,465.967743 89.252472,481.506348 103.396950,495.517639 
	C114.160263,506.179565 126.382866,515.434753 138.385452,524.763550 
	C156.143677,538.565918 176.107849,548.603699 196.886307,556.970825 
	C214.145065,563.920776 231.818375,569.647766 250.360931,572.089355 
	C263.951782,573.878784 277.543121,576.096497 291.203278,576.819458 
	C308.799469,577.750793 326.432800,576.544067 343.737885,572.932190 
	C358.434723,569.864746 373.277802,567.042419 387.552277,562.520691 
	C406.017303,556.671631 423.499023,548.275879 440.269928,538.397461 
	C461.669861,525.792480 480.739258,510.305237 498.442352,493.026611 
	C502.073639,489.482391 505.446747,485.673645 509.291992,482.012238 
	C514.768066,486.043884 519.891052,490.050140 525.004883,494.407959 
	C518.648132,501.352020 512.650452,508.332672 505.870544,514.445740 
	C495.792297,523.532715 485.464142,532.401367 474.701569,540.658081 
	C452.485779,557.701416 427.824341,570.463623 401.531860,579.917297 
	C380.950775,587.317505 359.810303,592.702332 337.984070,595.079224 
	C337.261566,595.157959 336.658661,596.334961 336.000000,597.000000 
	C311.979095,597.000000 287.958221,597.000000 263.769135,596.635254 
	C262.926483,595.855347 262.295074,595.188538 261.570831,595.064636 
	C255.331848,593.997864 249.073090,593.047607 242.825897,592.027832 
	C216.168137,587.676270 190.941589,578.750488 166.869003,566.843323 
	C144.421753,555.740051 123.624176,541.954163 104.724449,525.332153 
	C86.720428,509.497955 70.282295,492.240479 56.432858,472.711700 
	C44.363342,455.692810 33.434265,437.868347 25.850262,418.319305 
	C20.497631,404.522034 14.931426,390.675751 11.279926,376.386383 
	C7.399675,361.201874 5.688528,345.464813 2.926818,329.987488 
	C2.792439,329.234375 1.664998,328.658447 0.999997,328.000000 
	C1.000000,308.979095 1.000000,289.958221 1.372601,270.769836 
	C2.495860,266.669220 3.162564,262.717896 4.011802,258.806152 
	C7.576345,242.387314 10.579929,225.814499 14.945621,209.609695 
	C20.816521,187.817780 30.699255,167.592560 42.033543,148.143188 
	C53.637814,128.230560 67.314011,109.771515 83.400208,93.253128 
	C91.449738,84.987335 100.153709,77.331299 108.848198,69.727058 
	C125.661911,55.021721 144.179657,42.627659 164.336090,33.170212 
	C180.638992,25.520851 197.529419,18.906393 214.619202,13.213720 
	C231.054657,7.739005 248.087494,4.089347 265.517151,2.919877 
	C266.383820,2.861728 267.174133,1.666023 268.000000,1.000000 
z"/>
<path fill="#000000" opacity="1.000000" stroke="none" 
	d="
M267.531342,1.000000 
	C267.174133,1.666023 266.383820,2.861728 265.517151,2.919877 
	C248.087494,4.089347 231.054657,7.739005 214.619202,13.213720 
	C197.529419,18.906393 180.638992,25.520851 164.336090,33.170212 
	C144.179657,42.627659 125.661911,55.021721 108.848198,69.727058 
	C100.153709,77.331299 91.449738,84.987335 83.400208,93.253128 
	C67.314011,109.771515 53.637814,128.230560 42.033543,148.143188 
	C30.699255,167.592560 20.816521,187.817780 14.945621,209.609695 
	C10.579929,225.814499 7.576345,242.387314 4.011802,258.806152 
	C3.162564,262.717896 2.495860,266.669220 1.372601,270.301178 
	C1.000000,180.406555 1.000000,90.813095 1.000000,1.000000 
	C89.687439,1.000000 178.375061,1.000000 267.531342,1.000000 
z"/>
<path fill="#000000" opacity="1.000000" stroke="none" 
	d="
M0.999997,328.468658 
	C1.664998,328.658447 2.792439,329.234375 2.926818,329.987488 
	C5.688528,345.464813 7.399675,361.201874 11.279926,376.386383 
	C14.931426,390.675751 20.497631,404.522034 25.850262,418.319305 
	C33.434265,437.868347 44.363342,455.692810 56.432858,472.711700 
	C70.282295,492.240479 86.720428,509.497955 104.724449,525.332153 
	C123.624176,541.954163 144.421753,555.740051 166.869003,566.843323 
	C190.941589,578.750488 216.168137,587.676270 242.825897,592.027832 
	C249.073090,593.047607 255.331848,593.997864 261.570831,595.064636 
	C262.295074,595.188538 262.926483,595.855347 263.300476,596.635254 
	C175.738663,597.000000 88.477341,597.000000 1.000000,597.000000 
	C1.000000,507.645874 1.000000,418.291595 0.999997,328.468658 
z"/>
<path fill="#000000" opacity="1.000000" stroke="none" 
	d="
M597.000000,260.531342 
	C596.335022,260.341003 595.150757,259.732849 595.080566,259.015686 
	C593.033325,238.099121 587.607605,217.955215 580.572510,198.279541 
	C573.387146,178.183548 563.979004,159.130737 552.626831,140.966415 
	C539.976379,120.724541 525.078491,102.424568 508.176544,85.654388 
	C491.636353,69.243134 473.239166,55.182625 453.354706,43.167233 
	C434.527740,31.790821 414.615051,22.596510 393.590759,15.916812 
	C376.612579,10.522621 359.479095,5.885304 341.699371,3.945397 
	C337.897339,3.530571 334.163116,2.494875 330.698822,1.372601 
	C419.592865,1.000000 508.185760,1.000000 597.000000,1.000000 
	C597.000000,87.354103 597.000000,173.708389 597.000000,260.531342 
z"/>
<path fill="#000000" opacity="1.000000" stroke="none" 
	d="
M336.468628,597.000000 
	C336.658661,596.334961 337.261566,595.157959 337.984070,595.079224 
	C359.810303,592.702332 380.950775,587.317505 401.531860,579.917297 
	C427.824341,570.463623 452.485779,557.701416 474.701569,540.658081 
	C485.464142,532.401367 495.792297,523.532715 505.870544,514.445740 
	C512.650452,508.332672 518.648132,501.352020 525.356934,494.466034 
	C528.222412,495.625916 530.786255,500.356049 533.568787,494.023010 
	C548.159485,497.177551 554.834229,491.934143 561.234436,480.826874 
	C567.579590,469.815125 575.204346,459.526093 582.491943,449.076355 
	C588.705017,440.167450 590.603943,427.023560 581.257080,418.209229 
	C579.739319,416.289154 577.937256,414.608276 576.135132,412.927429 
	C579.123047,403.826782 582.145996,394.737457 585.090881,385.622955 
	C589.907776,370.714691 593.379333,355.511322 595.047974,339.911377 
	C595.141174,339.040314 595.849670,338.235046 596.635864,337.699585 
	C597.000000,424.260651 597.000000,510.521332 597.000000,597.000000 
	C510.312561,597.000000 423.624939,597.000000 336.468628,597.000000 
z"/>
<path fill="#000000" opacity="1.000000" stroke="none" 
	d="
M508.938873,481.986847 
	C505.446747,485.673645 502.073639,489.482391 498.442352,493.026611 
	C480.739258,510.305237 461.669861,525.792480 440.269928,538.397461 
	C423.499023,548.275879 406.017303,556.671631 387.552277,562.520691 
	C373.277802,567.042419 358.434723,569.864746 343.737885,572.932190 
	C326.432800,576.544067 308.799469,577.750793 291.203278,576.819458 
	C277.543121,576.096497 263.951782,573.878784 250.360931,572.089355 
	C231.818375,569.647766 214.145065,563.920776 196.886307,556.970825 
	C176.107849,548.603699 156.143677,538.565918 138.385452,524.763550 
	C126.382866,515.434753 114.160263,506.179565 103.396950,495.517639 
	C89.252472,481.506348 76.726463,465.967743 65.934525,449.064850 
	C49.000805,422.542419 36.639519,394.051239 29.461330,363.522278 
	C26.122198,349.320831 24.797600,334.611847 23.110676,320.069031 
	C22.161194,311.883575 22.034657,303.567291 22.056959,295.311310 
	C22.119459,272.175629 25.433073,249.434052 31.457594,227.123093 
	C40.090767,195.151398 54.123188,165.629837 73.187584,138.604736 
	C84.504532,122.562157 97.410896,107.735550 112.023193,94.603363 
	C129.834976,78.595779 149.211380,64.784271 170.570435,53.666180 
	C196.285217,40.280781 223.238647,31.133734 251.739441,25.815931 
	C274.020142,21.658710 296.444092,21.049908 318.802429,22.262920 
	C344.276184,23.644953 369.167633,29.177885 393.243622,37.966530 
	C421.274750,48.198940 447.328827,62.013645 470.403198,81.021942 
	C480.433350,89.284584 490.159698,97.981224 499.432587,107.083267 
	C515.109375,122.471191 527.924438,140.174164 538.973816,159.113831 
	C549.420837,177.020889 558.193970,195.730942 564.206665,215.622360 
	C569.274475,232.387543 573.817444,249.322159 574.932007,266.885162 
	C575.936218,282.708710 577.402039,298.616089 576.731079,314.404358 
	C575.882935,334.362610 572.919434,354.225616 566.959351,373.438690 
	C563.961731,383.101929 560.507751,392.623596 556.763550,402.496490 
	C551.237610,400.080627 546.249023,397.296326 541.148254,394.735382 
	C539.973755,394.145660 538.414612,394.321991 536.705811,394.000244 
	C504.411469,376.564545 472.443817,359.274353 440.189636,341.829163 
	C435.309509,349.834290 430.564758,357.448120 425.994720,365.165436 
	C422.075256,371.784149 422.164520,371.835175 428.564911,376.055878 
	C428.977753,376.328125 429.331970,376.699799 429.763977,376.930786 
	C432.008057,378.130737 433.704193,378.627502 435.299408,375.546387 
	C437.744293,370.824249 440.876343,366.457825 443.758942,361.873413 
	C448.285095,364.151398 452.494385,366.269928 456.590912,368.331696 
	C453.170532,373.940735 449.815491,379.442657 446.354675,385.118042 
	C450.607452,387.700806 454.128052,389.838928 457.639374,391.971405 
	C461.445526,385.903320 464.898834,380.397858 468.512604,374.636505 
	C472.914886,377.126007 476.967651,379.417816 481.122742,381.767548 
	C479.304260,384.669067 477.669525,387.292267 476.019592,389.905884 
	C474.292725,392.641388 472.551361,395.367706 470.713806,398.259369 
	C474.769501,400.709991 478.483734,402.954285 482.135712,405.160950 
	C483.870453,402.393280 485.262604,399.989105 486.834412,397.708740 
	C489.027252,394.527374 490.995911,389.345306 493.721344,388.878632 
	C496.647675,388.377563 500.338959,392.343994 503.631439,394.321869 
	C500.307831,399.984467 497.028015,405.572479 493.570190,411.463776 
	C497.378662,413.835236 500.803497,415.967834 504.547577,418.299225 
	C508.190094,412.416809 511.695007,406.756622 515.250488,401.014740 
	C519.642578,403.511993 523.738647,405.840942 527.989441,408.257874 
	C524.534790,413.689056 521.227844,418.887970 517.738037,424.374481 
	C518.954041,425.195129 520.001648,425.902069 520.735168,426.837891 
	C515.626526,436.427856 510.831879,445.788940 505.716431,455.005920 
	C476.266876,434.488770 447.138214,414.115692 417.309875,393.253265 
	C416.734619,401.779114 412.121552,408.824554 422.332581,415.403534 
	C442.218903,428.216217 460.854187,442.976166 479.945679,457.013885 
	C486.113342,461.548889 492.087189,466.347534 498.077118,471.397095 
	C498.906769,473.172180 499.551636,474.875336 500.764465,475.917328 
	C503.332184,478.123352 506.196320,479.984344 508.938873,481.986847 
M307.070404,448.440308 
	C308.452118,448.644775 309.977173,448.541840 311.190369,449.107635 
	C316.067535,451.382172 320.697968,454.247864 325.691284,456.200104 
	C344.573242,463.582428 363.625641,465.567352 382.333008,455.835419 
	C394.806488,449.346527 403.894318,439.361053 406.770416,425.423920 
	C409.113800,414.068176 409.050781,402.226593 411.203033,390.817047 
	C412.752472,382.603027 414.976746,374.055267 419.054077,366.880493 
	C426.298279,354.132904 434.972015,342.170471 443.413910,330.136475 
	C460.471619,305.820526 469.642548,279.411469 466.013580,249.341446 
	C463.231049,226.285355 454.331512,206.514084 435.516418,192.015900 
	C416.976318,177.729584 395.907715,172.523727 373.029022,176.209595 
	C352.229156,179.560547 335.644104,190.407242 323.263062,207.908218 
	C318.495148,202.138397 316.869080,195.928833 318.721130,188.617050 
	C321.825867,176.359924 329.087921,166.558136 336.615479,156.826752 
	C340.007965,152.441101 343.387573,147.977264 346.096130,143.167709 
	C347.045593,141.481796 346.628601,138.261322 345.572998,136.496964 
	C344.935577,135.431595 341.783051,135.312012 339.910583,135.635513 
	C327.931641,137.705200 319.726746,145.304184 312.839081,154.687164 
	C311.254822,156.845367 309.771057,159.077362 308.080170,161.506577 
	C306.144501,159.200256 304.579193,157.524612 303.230194,155.689941 
	C300.063385,151.383011 296.487122,147.269699 294.021790,142.581055 
	C290.772583,136.401688 289.082001,129.363495 285.569641,123.369370 
	C276.127380,107.255386 261.669495,98.477844 243.059341,97.056656 
	C227.267548,95.850693 211.952347,98.259697 196.794647,104.915916 
	C197.167831,107.657379 197.550369,110.713493 198.004379,113.758957 
	C199.758804,125.527390 204.310547,136.046951 212.388992,144.853668 
	C222.516525,155.894165 235.363922,162.322220 249.887253,164.812057 
	C257.834076,166.174454 266.101410,165.746796 274.228424,165.892365 
	C275.441376,165.914093 276.677460,164.648239 277.902832,163.978043 
	C277.177917,163.049469 276.536346,162.038589 275.714081,161.206177 
	C271.564331,157.005219 267.058380,153.109238 263.285492,148.597733 
	C260.295837,145.022736 258.184692,140.713074 255.683441,136.729630 
	C256.072815,136.421432 256.462189,136.113220 256.851562,135.805008 
	C259.214233,137.198669 261.636139,138.501694 263.929962,140.000687 
	C279.091278,149.908371 293.071411,161.065109 300.547150,178.223160 
	C304.229309,186.674255 306.799683,195.610123 303.926025,204.900864 
	C303.314941,206.876572 300.984283,209.289917 299.108124,209.628128 
	C297.287048,209.956390 294.748535,208.209671 293.044067,206.762802 
	C291.212097,205.207703 290.137543,202.798218 288.469177,201.006775 
	C268.103088,179.138306 243.081039,171.117691 213.950455,177.097534 
	C188.975876,182.224213 170.282547,196.372421 159.343597,219.517197 
	C151.671967,235.748978 148.636581,252.902206 150.775070,271.160431 
	C152.634964,287.040192 156.453339,302.118591 164.543335,315.777527 
	C171.779419,327.994720 179.855606,339.740265 188.005280,351.382996 
	C195.725250,362.411835 203.417862,373.416748 205.477737,387.070587 
	C207.018539,397.283661 208.219803,407.578461 208.924210,417.881165 
	C210.588684,442.225677 231.918304,459.672913 253.848648,461.897552 
	C272.784454,463.818390 290.290741,458.765717 307.070404,448.440308 
M172.367584,423.919739 
	C163.683777,429.715393 155.085953,435.645416 146.293243,441.270844 
	C136.464828,447.558929 133.191757,446.820160 126.772476,437.232941 
	C120.958809,428.550232 115.079193,419.901062 109.605682,411.005096 
	C106.205696,405.479248 107.482597,401.023926 112.428947,398.222931 
	C115.957848,403.701752 119.486748,409.180573 123.207497,414.957275 
	C127.071182,412.410095 130.741547,409.990356 134.263336,407.668549 
	C130.526474,401.696381 127.292824,396.528442 123.896126,391.099915 
	C128.362549,388.852936 132.282272,386.881012 136.751694,384.632538 
	C138.815750,387.933167 140.736725,391.129913 142.779266,394.246948 
	C148.147156,402.438721 148.172760,402.430817 155.766388,396.630798 
	C157.871841,395.022644 158.704956,393.594177 156.634232,390.912628 
	C153.695297,387.106750 151.471100,382.748993 148.694473,378.224518 
	C153.118942,375.745117 157.238373,373.436676 161.320419,371.149170 
	C164.861145,376.943420 168.299896,382.570770 171.820953,388.332855 
	C175.949722,385.873962 179.549042,383.730377 183.136734,381.593719 
	C179.746414,375.746887 176.616180,370.348602 173.482056,364.943604 
	C177.821320,363.011597 181.328094,361.450256 184.890396,359.864197 
	C181.763580,355.021912 178.853424,350.515167 175.858109,345.876556 
	C165.084625,351.472443 154.759796,356.790131 144.476685,362.187347 
	C130.123672,369.720642 115.753334,377.223175 101.480827,384.906799 
	C88.071373,392.125793 84.970924,405.371765 93.562538,418.110321 
	C97.668678,424.198425 101.960915,430.161530 106.036278,436.269714 
	C110.026154,442.249786 114.572334,448.004425 117.581795,454.460541 
	C122.772125,465.595215 135.784958,467.219360 145.520386,462.938782 
	C151.233383,460.426880 156.379715,456.475952 161.488403,452.769135 
	C174.727417,443.162964 187.811966,433.343658 200.927841,423.568695 
	C201.745880,422.959045 202.951202,421.932831 202.878067,421.211823 
	C202.297379,415.487030 201.450592,409.789246 200.616150,403.565948 
	C190.966507,410.524170 181.967590,417.013153 172.367584,423.919739 
z"/>
<path fill="#FBFDFA" opacity="1.000000" stroke="none" 
	d="
M509.291992,482.012238 
	C506.196320,479.984344 503.332184,478.123352 500.764465,475.917328 
	C499.551636,474.875336 498.906769,473.172180 498.432129,471.377197 
	C500.237091,471.812622 501.658203,472.575195 502.984985,473.476593 
	C513.050232,480.314972 523.096985,487.180603 533.149536,494.037689 
	C530.786255,500.356049 528.222412,495.625916 525.366028,494.114471 
	C519.891052,490.050140 514.768066,486.043884 509.291992,482.012238 
z"/>
<path fill="#FBFCF9" opacity="1.000000" stroke="none" 
	d="
M537.032471,394.145813 
	C538.414612,394.321991 539.973755,394.145660 541.148254,394.735382 
	C546.249023,397.296326 551.237610,400.080627 556.619141,402.836670 
	C563.114685,406.226349 569.258179,409.563080 575.768372,412.913605 
	C577.937256,414.608276 579.739319,416.289154 580.880127,418.219971 
	C575.792847,415.989197 571.361938,413.517303 566.942017,411.025848 
	C556.969299,405.404327 547.001953,399.773102 537.032471,394.145813 
z"/>
<path fill="#7AC142" opacity="1.000000" stroke="none" 
	d="
M536.705811,394.000275 
	C547.001953,399.773102 556.969299,405.404327 566.942017,411.025848 
	C571.361938,413.517303 575.792847,415.989197 580.595825,418.459198 
	C590.603943,427.023560 588.705017,440.167450 582.491943,449.076355 
	C575.204346,459.526093 567.579590,469.815125 561.234436,480.826874 
	C554.834229,491.934143 548.159485,497.177551 533.568787,494.023010 
	C523.096985,487.180603 513.050232,480.314972 502.984985,473.476593 
	C501.658203,472.575195 500.237091,471.812622 498.504700,471.005676 
	C492.087189,466.347534 486.113342,461.548889 479.945679,457.013885 
	C460.854187,442.976166 442.218903,428.216217 422.332581,415.403534 
	C412.121552,408.824554 416.734619,401.779114 417.309875,393.253265 
	C447.138214,414.115692 476.266876,434.488770 505.825806,455.321411 
	C516.483948,462.211426 526.663025,468.721588 536.963806,475.033081 
	C541.090515,477.561646 544.581299,475.120300 546.740234,472.058014 
	C553.736633,462.133911 560.428406,451.985168 566.950928,441.740540 
	C570.797180,435.699371 569.819702,431.643951 563.992493,427.149323 
	C562.240173,429.942322 560.514526,432.712402 558.769653,435.470367 
	C552.882629,444.775543 552.878479,444.776062 543.833313,438.226959 
	C543.579163,438.042938 543.446228,437.691467 543.087585,437.174011 
	C546.303406,431.948700 549.583740,426.618591 553.078613,420.939819 
	C548.305847,418.394348 544.024414,416.110901 539.524902,413.711121 
	C537.401855,417.038666 535.584412,419.946442 533.708557,422.816071 
	C528.755432,430.393066 528.745361,430.386475 521.049194,426.609009 
	C520.001648,425.902069 518.954041,425.195129 517.738037,424.374481 
	C521.227844,418.887970 524.534790,413.689056 527.989441,408.257874 
	C523.738647,405.840942 519.642578,403.511993 515.250488,401.014740 
	C511.695007,406.756622 508.190094,412.416809 504.547577,418.299225 
	C500.803497,415.967834 497.378662,413.835236 493.570190,411.463776 
	C497.028015,405.572479 500.307831,399.984467 503.631439,394.321869 
	C500.338959,392.343994 496.647675,388.377563 493.721344,388.878632 
	C490.995911,389.345306 489.027252,394.527374 486.834412,397.708740 
	C485.262604,399.989105 483.870453,402.393280 482.135712,405.160950 
	C478.483734,402.954285 474.769501,400.709991 470.713806,398.259369 
	C472.551361,395.367706 474.292725,392.641388 476.019592,389.905884 
	C477.669525,387.292267 479.304260,384.669067 481.122742,381.767548 
	C476.967651,379.417816 472.914886,377.126007 468.512604,374.636505 
	C464.898834,380.397858 461.445526,385.903320 457.639374,391.971405 
	C454.128052,389.838928 450.607452,387.700806 446.354675,385.118042 
	C449.815491,379.442657 453.170532,373.940735 456.590912,368.331696 
	C452.494385,366.269928 448.285095,364.151398 443.758942,361.873413 
	C440.876343,366.457825 437.744293,370.824249 435.299408,375.546387 
	C433.704193,378.627502 432.008057,378.130737 429.763977,376.930786 
	C429.331970,376.699799 428.977753,376.328125 428.564911,376.055878 
	C422.164520,371.835175 422.075256,371.784149 425.994720,365.165436 
	C430.564758,357.448120 435.309509,349.834290 440.189636,341.829163 
	C472.443817,359.274353 504.411469,376.564545 536.705811,394.000275 
z"/>
<path fill="#7AC142" opacity="1.000000" stroke="none" 
	d="
M306.767670,448.671661 
	C290.290741,458.765717 272.784454,463.818390 253.848648,461.897552 
	C231.918304,459.672913 210.588684,442.225677 208.924210,417.881165 
	C208.219803,407.578461 207.018539,397.283661 205.477737,387.070587 
	C203.417862,373.416748 195.725250,362.411835 188.005280,351.382996 
	C179.855606,339.740265 171.779419,327.994720 164.543335,315.777527 
	C156.453339,302.118591 152.634964,287.040192 150.775070,271.160431 
	C148.636581,252.902206 151.671967,235.748978 159.343597,219.517197 
	C170.282547,196.372421 188.975876,182.224213 213.950455,177.097534 
	C243.081039,171.117691 268.103088,179.138306 288.469177,201.006775 
	C290.137543,202.798218 291.212097,205.207703 293.044067,206.762802 
	C294.748535,208.209671 297.287048,209.956390 299.108124,209.628128 
	C300.984283,209.289917 303.314941,206.876572 303.926025,204.900864 
	C306.799683,195.610123 304.229309,186.674255 300.547150,178.223160 
	C293.071411,161.065109 279.091278,149.908371 263.929962,140.000687 
	C261.636139,138.501694 259.214233,137.198669 256.851562,135.805008 
	C256.462189,136.113220 256.072815,136.421432 255.683441,136.729630 
	C258.184692,140.713074 260.295837,145.022736 263.285492,148.597733 
	C267.058380,153.109238 271.564331,157.005219 275.714081,161.206177 
	C276.536346,162.038589 277.177917,163.049469 277.902832,163.978043 
	C276.677460,164.648239 275.441376,165.914093 274.228424,165.892365 
	C266.101410,165.746796 257.834076,166.174454 249.887253,164.812057 
	C235.363922,162.322220 222.516525,155.894165 212.388992,144.853668 
	C204.310547,136.046951 199.758804,125.527390 198.004379,113.758957 
	C197.550369,110.713493 197.167831,107.657379 196.794647,104.915916 
	C211.952347,98.259697 227.267548,95.850693 243.059341,97.056656 
	C261.669495,98.477844 276.127380,107.255386 285.569641,123.369370 
	C289.082001,129.363495 290.772583,136.401688 294.021790,142.581055 
	C296.487122,147.269699 300.063385,151.383011 303.230194,155.689941 
	C304.579193,157.524612 306.144501,159.200256 308.080170,161.506577 
	C309.771057,159.077362 311.254822,156.845367 312.839081,154.687164 
	C319.726746,145.304184 327.931641,137.705200 339.910583,135.635513 
	C341.783051,135.312012 344.935577,135.431595 345.572998,136.496964 
	C346.628601,138.261322 347.045593,141.481796 346.096130,143.167709 
	C343.387573,147.977264 340.007965,152.441101 336.615479,156.826752 
	C329.087921,166.558136 321.825867,176.359924 318.721130,188.617050 
	C316.869080,195.928833 318.495148,202.138397 323.263062,207.908218 
	C335.644104,190.407242 352.229156,179.560547 373.029022,176.209595 
	C395.907715,172.523727 416.976318,177.729584 435.516418,192.015900 
	C454.331512,206.514084 463.231049,226.285355 466.013580,249.341446 
	C469.642548,279.411469 460.471619,305.820526 443.413910,330.136475 
	C434.972015,342.170471 426.298279,354.132904 419.054077,366.880493 
	C414.976746,374.055267 412.752472,382.603027 411.203033,390.817047 
	C409.050781,402.226593 409.113800,414.068176 406.770416,425.423920 
	C403.894318,439.361053 394.806488,449.346527 382.333008,455.835419 
	C363.625641,465.567352 344.573242,463.582428 325.691284,456.200104 
	C320.697968,454.247864 316.067535,451.382172 311.190369,449.107635 
	C309.977173,448.541840 308.452118,448.644775 306.767670,448.671661 
M251.873306,308.988739 
	C250.465622,308.650421 249.057922,308.312103 246.913818,307.796814 
	C246.913818,313.735931 246.913818,319.275482 246.913818,324.729492 
	C242.297226,324.729492 238.360764,324.729492 233.942047,324.729492 
	C233.942047,318.714355 233.942047,312.957764 233.942047,306.971008 
	C226.766663,306.061615 220.047043,305.209991 212.762939,304.286804 
	C212.762939,309.340271 212.762939,314.078461 212.762939,318.727173 
	C208.292175,318.727173 204.355835,318.727173 199.895691,318.727173 
	C199.895691,313.063385 199.895691,307.655975 199.895691,302.386230 
	C193.097275,301.457031 186.847687,300.602875 180.598114,299.748688 
	C180.182175,300.160675 179.766235,300.572662 179.350296,300.984619 
	C184.174118,310.759399 188.450180,320.856873 193.968185,330.222626 
	C200.091980,340.616638 207.284561,350.388123 214.208725,360.292969 
	C214.938065,361.336273 216.961639,361.807190 218.438126,361.937103 
	C224.191315,362.443115 229.972687,362.619843 235.731384,363.073761 
	C251.810654,364.341217 267.889374,366.831177 283.958252,366.753540 
	C314.267212,366.607239 344.572235,365.083221 374.871948,363.945984 
	C383.254181,363.631378 391.616516,362.711060 399.973602,361.917206 
	C400.841187,361.834808 401.817078,360.864685 402.393219,360.057159 
	C407.991394,352.210358 413.541962,344.329193 419.053253,336.421021 
	C426.797943,325.308105 433.173401,313.537872 436.614655,299.840851 
	C430.483154,300.623779 424.778656,301.187683 419.163727,302.232941 
	C418.241089,302.404694 417.183899,304.658386 417.099274,306.006989 
	C416.833313,310.247131 417.001343,314.514435 417.001343,318.747803 
	C412.333313,318.747803 408.397491,318.747803 403.932068,318.747803 
	C403.932068,314.106262 403.932068,309.697693 403.932068,304.691193 
	C396.711456,305.582642 390.092560,306.399811 382.956085,307.280853 
	C382.956085,313.148804 382.956085,318.893219 382.956085,324.642700 
	C378.356384,324.642700 374.306580,324.642700 369.888306,324.642700 
	C369.888306,319.351379 369.888306,314.408386 369.888306,308.770264 
	C362.807068,309.277344 356.147858,309.754150 348.945465,310.269897 
	C348.945465,317.186493 348.945465,323.919281 348.945465,330.631439 
	C344.336487,330.631439 340.285828,330.631439 335.867371,330.631439 
	C335.867371,323.995056 335.867371,317.720428 335.867371,310.767639 
	C328.786835,311.278046 322.125977,311.758179 314.924469,312.277313 
	C314.924469,319.542267 314.924469,326.605682 314.924469,333.620575 
	C310.312317,333.620575 306.262878,333.620575 301.850586,333.620575 
	C301.850586,326.302521 301.850586,319.359528 301.850586,312.121552 
	C294.833313,311.645935 288.171539,311.194427 280.907898,310.702087 
	C280.907898,317.898743 280.907898,324.293518 280.907898,330.611420 
	C276.296448,330.611420 272.245087,330.611420 267.836548,330.611420 
	C267.836548,323.614929 267.836548,317.003906 267.836548,310.160126 
	C262.590546,309.755280 257.687042,309.376862 251.873306,308.988739 
M386.062408,211.116638 
	C391.012360,219.895172 398.047791,226.048981 408.000397,228.513962 
	C412.596405,229.652252 416.717926,229.320862 420.150146,225.406464 
	C423.129852,222.008072 422.441010,218.312576 421.245514,214.785370 
	C417.710815,204.356735 409.915100,198.382660 399.769745,194.964127 
	C394.602631,193.223038 390.133301,193.819199 386.419586,198.060516 
	C382.931732,202.043839 384.138855,206.176376 386.062408,211.116638 
M414.230469,242.053665 
	C411.214996,240.235321 408.025482,240.611053 406.504150,243.467163 
	C405.570984,245.219040 406.245911,248.304443 407.098755,250.429855 
	C408.793762,254.654114 412.416351,257.108765 416.799530,257.928284 
	C418.788147,258.300079 421.870148,258.315735 422.847900,257.147186 
	C423.953979,255.825317 424.151093,252.369293 423.159058,250.944397 
	C420.927551,247.739395 417.717316,245.215805 414.230469,242.053665 
z"/>
<path fill="#7AC142" opacity="1.000000" stroke="none" 
	d="
M172.668137,423.710938 
	C181.967590,417.013153 190.966507,410.524170 200.616150,403.565948 
	C201.450592,409.789246 202.297379,415.487030 202.878067,421.211823 
	C202.951202,421.932831 201.745880,422.959045 200.927841,423.568695 
	C187.811966,433.343658 174.727417,443.162964 161.488403,452.769135 
	C156.379715,456.475952 151.233383,460.426880 145.520386,462.938782 
	C135.784958,467.219360 122.772125,465.595215 117.581795,454.460541 
	C114.572334,448.004425 110.026154,442.249786 106.036278,436.269714 
	C101.960915,430.161530 97.668678,424.198425 93.562538,418.110321 
	C84.970924,405.371765 88.071373,392.125793 101.480827,384.906799 
	C115.753334,377.223175 130.123672,369.720642 144.476685,362.187347 
	C154.759796,356.790131 165.084625,351.472443 175.858109,345.876556 
	C178.853424,350.515167 181.763580,355.021912 184.890396,359.864197 
	C181.328094,361.450256 177.821320,363.011597 173.482056,364.943604 
	C176.616180,370.348602 179.746414,375.746887 183.136734,381.593719 
	C179.549042,383.730377 175.949722,385.873962 171.820953,388.332855 
	C168.299896,382.570770 164.861145,376.943420 161.320419,371.149170 
	C157.238373,373.436676 153.118942,375.745117 148.694473,378.224518 
	C151.471100,382.748993 153.695297,387.106750 156.634232,390.912628 
	C158.704956,393.594177 157.871841,395.022644 155.766388,396.630798 
	C148.172760,402.430817 148.147156,402.438721 142.779266,394.246948 
	C140.736725,391.129913 138.815750,387.933167 136.751694,384.632538 
	C132.282272,386.881012 128.362549,388.852936 123.896126,391.099915 
	C127.292824,396.528442 130.526474,401.696381 134.263336,407.668549 
	C130.741547,409.990356 127.071182,412.410095 123.207497,414.957275 
	C119.486748,409.180573 115.957848,403.701752 112.428650,398.223541 
	C107.482597,401.023926 106.205696,405.479248 109.605682,411.005096 
	C115.079193,419.901062 120.958809,428.550232 126.772476,437.232941 
	C133.191757,446.820160 136.464828,447.558929 146.293243,441.270844 
	C155.085953,435.645416 163.683777,429.715393 172.668137,423.710938 
z"/>
<path fill="#FEFFFE" opacity="1.000000" stroke="none" 
	d="
M520.735168,426.837891 
	C528.745361,430.386475 528.755432,430.393066 533.708557,422.816071 
	C535.584412,419.946442 537.401855,417.038666 539.524902,413.711121 
	C544.024414,416.110901 548.305847,418.394348 553.078613,420.939819 
	C549.583740,426.618591 546.303406,431.948700 543.087585,437.174011 
	C543.446228,437.691467 543.579163,438.042938 543.833313,438.226959 
	C552.878479,444.776062 552.882629,444.775543 558.769653,435.470367 
	C560.514526,432.712402 562.240173,429.942322 563.992493,427.149323 
	C569.819702,431.643951 570.797180,435.699371 566.950928,441.740540 
	C560.428406,451.985168 553.736633,462.133911 546.740234,472.058014 
	C544.581299,475.120300 541.090515,477.561646 536.963806,475.033081 
	C526.663025,468.721588 516.483948,462.211426 506.146637,455.465515 
	C510.831879,445.788940 515.626526,436.427856 520.735168,426.837891 
z"/>
<path fill="#000000" opacity="1.000000" stroke="none" 
	d="
M252.328430,308.993591 
	C257.687042,309.376862 262.590546,309.755280 267.836548,310.160126 
	C267.836548,317.003906 267.836548,323.614929 267.836548,330.611420 
	C272.245087,330.611420 276.296448,330.611420 280.907898,330.611420 
	C280.907898,324.293518 280.907898,317.898743 280.907898,310.702087 
	C288.171539,311.194427 294.833313,311.645935 301.850586,312.121552 
	C301.850586,319.359528 301.850586,326.302521 301.850586,333.620575 
	C306.262878,333.620575 310.312317,333.620575 314.924469,333.620575 
	C314.924469,326.605682 314.924469,319.542267 314.924469,312.277313 
	C322.125977,311.758179 328.786835,311.278046 335.867371,310.767639 
	C335.867371,317.720428 335.867371,323.995056 335.867371,330.631439 
	C340.285828,330.631439 344.336487,330.631439 348.945465,330.631439 
	C348.945465,323.919281 348.945465,317.186493 348.945465,310.269897 
	C356.147858,309.754150 362.807068,309.277344 369.888306,308.770264 
	C369.888306,314.408386 369.888306,319.351379 369.888306,324.642700 
	C374.306580,324.642700 378.356384,324.642700 382.956085,324.642700 
	C382.956085,318.893219 382.956085,313.148804 382.956085,307.280853 
	C390.092560,306.399811 396.711456,305.582642 403.932068,304.691193 
	C403.932068,309.697693 403.932068,314.106262 403.932068,318.747803 
	C408.397491,318.747803 412.333313,318.747803 417.001343,318.747803 
	C417.001343,314.514435 416.833313,310.247131 417.099274,306.006989 
	C417.183899,304.658386 418.241089,302.404694 419.163727,302.232941 
	C424.778656,301.187683 430.483154,300.623779 436.614655,299.840851 
	C433.173401,313.537872 426.797943,325.308105 419.053253,336.421021 
	C413.541962,344.329193 407.991394,352.210358 402.393219,360.057159 
	C401.817078,360.864685 400.841187,361.834808 399.973602,361.917206 
	C391.616516,362.711060 383.254181,363.631378 374.871948,363.945984 
	C344.572235,365.083221 314.267212,366.607239 283.958252,366.753540 
	C267.889374,366.831177 251.810654,364.341217 235.731384,363.073761 
	C229.972687,362.619843 224.191315,362.443115 218.438126,361.937103 
	C216.961639,361.807190 214.938065,361.336273 214.208725,360.292969 
	C207.284561,350.388123 200.091980,340.616638 193.968185,330.222626 
	C188.450180,320.856873 184.174118,310.759399 179.350296,300.984619 
	C179.766235,300.572662 180.182175,300.160675 180.598114,299.748688 
	C186.847687,300.602875 193.097275,301.457031 199.895691,302.386230 
	C199.895691,307.655975 199.895691,313.063385 199.895691,318.727173 
	C204.355835,318.727173 208.292175,318.727173 212.762939,318.727173 
	C212.762939,314.078461 212.762939,309.340271 212.762939,304.286804 
	C220.047043,305.209991 226.766663,306.061615 233.942047,306.971008 
	C233.942047,312.957764 233.942047,318.714355 233.942047,324.729492 
	C238.360764,324.729492 242.297226,324.729492 246.913818,324.729492 
	C246.913818,319.275482 246.913818,313.735931 246.913818,307.796814 
	C249.057922,308.312103 250.465622,308.650421 252.328430,308.993591 
z"/>
<path fill="#000000" opacity="1.000000" stroke="none" 
	d="
M386.025452,210.727753 
	C384.138855,206.176376 382.931732,202.043839 386.419586,198.060516 
	C390.133301,193.819199 394.602631,193.223038 399.769745,194.964127 
	C409.915100,198.382660 417.710815,204.356735 421.245514,214.785370 
	C422.441010,218.312576 423.129852,222.008072 420.150146,225.406464 
	C416.717926,229.320862 412.596405,229.652252 408.000397,228.513962 
	C398.047791,226.048981 391.012360,219.895172 386.025452,210.727753 
z"/>
<path fill="#000000" opacity="1.000000" stroke="none" 
	d="
M414.567963,242.234268 
	C417.717316,245.215805 420.927551,247.739395 423.159058,250.944397 
	C424.151093,252.369293 423.953979,255.825317 422.847900,257.147186 
	C421.870148,258.315735 418.788147,258.300079 416.799530,257.928284 
	C412.416351,257.108765 408.793762,254.654114 407.098755,250.429855 
	C406.245911,248.304443 405.570984,245.219040 406.504150,243.467163 
	C408.025482,240.611053 411.214996,240.235321 414.567963,242.234268 
z"/>
</svg>